HIERARCHY
ROOT Hips
{
	OFFSET -0.001795 -0.223333 0.028219
	CHANNELS 6 Xposition Yposition Zposition Zrotation Yrotation Xrotation 
	JOINT LeftUpLeg
	{
		OFFSET 0.069520 -0.091406 -0.006815
		CHANNELS 3 Zrotation Yrotation Xrotation
		JOINT LeftLeg
		{
			OFFSET 0.034277 -0.375199 -0.004496
			CHANNELS 3 Zrotation Yrotation Xrotation
			JOINT LeftFoot
			{
				OFFSET -0.013596 -0.397961 -0.043693
				CHANNELS 3 Zrotation Yrotation Xrotation
				JOINT LeftToe
				{
					OFFSET 0.026358 -0.055791 0.119288
					CHANNELS 3 Zrotation Yrotation Xrotation
					End Site
					{
						OFFSET 0.000000 0.000000 0.000000
					}
				}
			}
		}
	}
	JOINT RightUpLeg
	{
		OFFSET -0.067670 -0.090522 -0.004320
		CHANNELS 3 Zrotation Yrotation Xrotation
		JOINT RightLeg
		{
			OFFSET -0.038290 -0.382569 -0.008850
			CHANNELS 3 Zrotation Yrotation Xrotation
			JOINT RightFoot
			{
				OFFSET 0.015774 -0.398415 -0.042312
				CHANNELS 3 Zrotation Yrotation Xrotation
				JOINT RightToe
				{
					OFFSET -0.025372 -0.048144 0.123348
					CHANNELS 3 Zrotation Yrotation Xrotation
					End Site
					{
						OFFSET 0.000000 0.000000 0.000000
					}
				}
			}
		}
	}
	JOINT Spine
	{
		OFFSET -0.002533 0.108963 -0.026696
		CHANNELS 3 Zrotation Yrotation Xrotation
		JOINT Spine1
		{
			OFFSET 0.005487 0.135180 0.001092
			CHANNELS 3 Zrotation Yrotation Xrotation
			JOINT Spine2
			{
				OFFSET 0.001457 0.052922 0.025425
				CHANNELS 3 Zrotation Yrotation Xrotation
				JOINT Neck
				{
					OFFSET -0.002778 0.213870 -0.042857
					CHANNELS 3 Zrotation Yrotation Xrotation
					JOINT Head
					{
						OFFSET 0.005152 0.064970 0.051349
						CHANNELS 3 Zrotation Yrotation Xrotation
						End Site
						{
							OFFSET 0.000000 0.000000 0.000000
						}
					}
				}
				JOINT LeftShoulder
				{
					OFFSET 0.078845 0.121749 -0.034090
					CHANNELS 3 Zrotation Yrotation Xrotation
					JOINT LeftArm
					{
						OFFSET 0.090977 0.030469 -0.008868
						CHANNELS 3 Zrotation Yrotation Xrotation
						JOINT LeftForeArm
						{
							OFFSET 0.259612 -0.012772 -0.027456
							CHANNELS 3 Zrotation Yrotation Xrotation
							JOINT LeftHand
							{
								OFFSET 0.249234 0.008986 -0.001171
								CHANNELS 3 Zrotation Yrotation Xrotation
								End Site
								{
									OFFSET 0.000000 0.000000 0.000000
								}
							}
						}
					}
				}
				JOINT RightShoulder
				{
					OFFSET -0.081759 0.118833 -0.038615
					CHANNELS 3 Zrotation Yrotation Xrotation
					JOINT RightArm
					{
						OFFSET -0.096012 0.032551 -0.009143
						CHANNELS 3 Zrotation Yrotation Xrotation
						JOINT RightForeArm
						{
							OFFSET -0.253742 -0.013329 -0.021401
							CHANNELS 3 Zrotation Yrotation Xrotation
							JOINT RightHand
							{
								OFFSET -0.255298 0.007772 -0.005559
								CHANNELS 3 Zrotation Yrotation Xrotation
								End Site
								{
									OFFSET 0.000000 0.000000 0.000000
								}
							}
						}
					}
				}
			}
		}
	}
}
MOTION
Frames: 5
Frame Time: 0.050000
0.142279 0.804129 0.788568 -2.356277 -4.229147 -14.998364 3.503882 -0.640240 -12.863252 -8.160875 4.265419 54.303008 12.379979 29.402956 -24.338819 0.000000 0.000000 0.000000 5.385506 3.345572 -21.014647 -0.351871 4.837418 63.627883 -7.524954 -16.734028 -15.059752 0.000000 0.000000 0.000000 5.122254 -1.922843 28.264729 -3.513518 1.839705 2.188894 -1.991079 7.790379 15.054388 10.613812 -5.050009 -16.919124 0.000000 0.000000 0.000000 -19.761438 -6.072004 -0.037706 -55.992353 4.663812 -9.826389 -29.909263 -70.171704 23.445089 0.000000 0.000000 0.000000 21.154586 -0.561149 -0.295284 56.604389 -5.787973 -9.679654 38.447745 66.180182 31.215984 0.000000 0.000000 0.000000 
0.144586 0.820205 0.797756 -1.985991 -5.221625 -13.369714 2.816764 -0.684839 -12.038425 -6.945649 3.535018 49.869644 11.486955 27.283078 -25.725608 0.000000 0.000000 0.000000 5.382736 3.316536 -20.835060 -1.549744 5.642316 59.261290 -7.525229 -16.510403 -14.572472 0.000000 0.000000 0.000000 5.178905 -1.810007 27.323506 -4.121963 2.160812 2.229613 -2.148631 6.906308 15.367261 10.106827 -4.978586 -16.310447 0.000000 0.000000 0.000000 -17.355257 1.771055 -3.307723 -56.834456 15.656396 -15.353720 -30.006336 -55.444032 18.153434 0.000000 0.000000 0.000000 16.183297 -7.938060 -4.280832 58.026061 -20.255868 -16.305462 39.324281 50.330919 22.578289 0.000000 0.000000 0.000000 
0.147707 0.840243 0.804452 -1.474307 -5.639282 -11.395815 1.747277 -0.794592 -11.459955 -6.379741 2.986833 44.348306 11.187469 26.120182 -23.174453 0.000000 0.000000 0.000000 5.626744 3.371266 -20.997170 -2.750782 6.082832 55.195050 -7.100718 -15.315038 -12.301429 0.000000 0.000000 0.000000 5.579257 -1.818026 26.206673 -4.073388 2.103459 1.723425 -2.765457 6.038300 16.127178 10.077960 -5.691018 -13.529782 0.000000 0.000000 0.000000 -13.204837 8.923888 -5.679034 -54.956257 27.718576 -20.315433 -36.675408 -47.668926 18.752860 0.000000 0.000000 0.000000 13.198839 -14.449755 -7.287647 54.159704 -31.442543 -19.763951 38.823738 40.860787 17.208767 0.000000 0.000000 0.000000 
0.151284 0.851889 0.806805 -1.650018 -5.823461 -9.984521 1.087811 -0.899688 -11.734273 -5.201487 2.199959 41.246628 11.086697 25.940538 -22.698906 0.000000 0.000000 0.000000 5.747615 3.706743 -22.823671 -2.587124 5.777452 53.664493 -7.416386 -16.646543 -10.530100 0.000000 0.000000 0.000000 5.898268 -1.932959 26.686115 -4.137597 2.109416 1.167841 -2.141595 7.066061 16.433894 9.917078 -5.474110 -13.409186 0.000000 0.000000 0.000000 -10.368484 13.356661 -7.083921 -46.777442 34.164608 -19.392682 -41.644990 -40.465457 17.384714 0.000000 0.000000 0.000000 8.338389 -21.245015 -9.433346 48.777988 -39.848746 -20.269449 36.295522 33.190798 12.720794 0.000000 0.000000 0.000000 
0.154940 0.850251 0.804647 -1.491394 -5.765582 -8.428160 1.367958 -1.113315 -15.274977 -5.693955 2.594465 43.266160 11.153363 25.829467 -21.951366 0.000000 0.000000 0.000000 5.493757 4.241681 -26.199464 -2.035127 5.500317 54.507383 -7.494810 -17.086074 -9.808116 0.000000 0.000000 0.000000 5.815491 -2.054125 28.262103 -3.716020 1.866794 0.744898 -2.617683 6.692529 16.142383 9.910383 -5.328485 -14.058714 0.000000 0.000000 0.000000 -7.417410 16.203808 -7.467724 -40.696471 35.029489 -16.787113 -40.061586 -34.189199 13.822741 0.000000 0.000000 0.000000 4.183867 -24.123093 -9.666501 42.782530 -42.855916 -18.170072 36.110372 28.323439 10.480378 0.000000 0.000000 0.000000 
